<?xml version="1.0" standalone="no"?><!DOCTYPE svg PUBLIC "-//W3C//DTD SVG 1.1//EN" "http://www.w3.org/Graphics/SVG/1.1/DTD/svg11.dtd"><svg t="1666442051983" class="icon" viewBox="0 0 1024 1024" version="1.1" xmlns="http://www.w3.org/2000/svg" p-id="7611" xmlns:xlink="http://www.w3.org/1999/xlink" width="200" height="200"><path d="M719.188806 502.370689c-8.791224-6.794753-14.921851-20.049638-17.475-31.394011-13.746072-61.084217-52.861952-96.336092-115.110691-100.750635-14.048971-0.997724-28.229948-0.147356-40.7194-0.147356-52.967352-73.132624-108.182908-90.663906-190.016705-55.800887-106.270349 45.270043-184.842869 122.044614-232.264924 227.119741-45.124733 99.987249-15.870456 195.124026 74.284867 258.279415 13.898545 9.736758 28.652574 18.788925 44.1178 25.670659 126.434597 56.260351 253.413594 56.302307 379.780653 0.303922 47.445592-21.024849 87.715761-52.40351 118.731148-94.677313C798.582017 651.830699 789.718139 556.89142 719.188806 502.370689zM696.509271 663.451364c-15.629979 27.451212-37.771255 55.168484-63.923892 71.976288-122.589013 78.784344-251.41303 82.528622-379.251603 14.33959-80.213903-42.787502-99.03762-113.996311-57.178257-195.072861 38.214347-74.014714 96.088452-129.578194 170.252569-167.215396 17.319457-8.789177 37.236066-14.778588 56.521295-16.879436 36.882002-4.01443 55.93187 15.223726 55.509245 52.127218-0.140193 12.32777-1.616824 24.641213-2.638083 39.167045 26.091238-6.725168 49.018414-13.537318 72.365144-18.281365 12.257162-2.490727 25.556049-3.363607 37.85312-1.482771 34.779108 5.316076 48.944735 25.369807 43.919279 59.760059-1.397836 9.555633-3.990894 18.936281-6.313799 29.68202 13.916964 6.970762 26.784016 12.529361 38.774095 19.577894C706.20612 576.906266 721.636554 619.315144 696.509271 663.451364z" p-id="7612" fill="#e3dd45"></path><path d="M921.181263 359.243921c-7.30129-118.797663-100.349499-196.193381-200.75835-202.724121-1.390673 0-5.655813-0.294712-9.869788 0.050142-22.861684 1.866511-35.855626 13.534248-36.906561 32.91669-1.061169 19.578917 9.952676 31.999808 32.903388 36.591383 5.516644 1.104147 11.30037 0.826831 16.856923 1.782599 70.697155 12.170181 112.990401 54.66604 124.826983 125.172861 1.635243 9.738805 2.142803 19.983123 5.653767 29.031197 7.930623 20.444635 30.937616 28.209482 48.937572 17.318434C917.865751 390.280798 922.198429 375.787712 921.181263 359.243921z" p-id="7613" fill="#e3dd45"></path><path d="M717.520817 281.84104c-23.680329-1.713015-38.666648 7.16826-43.091424 25.539676-4.489244 18.638499 2.833535 34.097586 25.781176 42.317805 15.122419 5.41636 22.314215 12.493545 27.584242 27.757181 7.794523 22.581298 24.603351 30.960129 42.322921 25.353434 18.848277-5.963829 26.53433-20.012799 25.408693-39.331797C795.219433 322.338383 759.414973 284.870026 717.520817 281.84104z" p-id="7614" fill="#e3dd45"></path></svg>